<?xml version="1.0" encoding="UTF-8" standalone="no"?>
<!-- Created with Inkscape (http://www.inkscape.org/) -->

<svg
   xmlns:dc="http://purl.org/dc/elements/1.1/"
   xmlns:cc="http://creativecommons.org/ns#"
   xmlns:rdf="http://www.w3.org/1999/02/22-rdf-syntax-ns#"
   xmlns:svg="http://www.w3.org/2000/svg"
   xmlns="http://www.w3.org/2000/svg"
   xmlns:sodipodi="http://sodipodi.sourceforge.net/DTD/sodipodi-0.dtd"
   xmlns:inkscape="http://www.inkscape.org/namespaces/inkscape"
   width="210mm"
   height="297mm"
   viewBox="0 0 210 297"
   version="1.1"
   id="svg8"
   inkscape:version="0.92.2 (5c3e80d, 2017-08-06)"
   sodipodi:docname="lifebox.svg">
  <defs
     id="defs2" />
  <sodipodi:namedview
     id="base"
     pagecolor="#ffffff"
     bordercolor="#666666"
     borderopacity="1.0"
     inkscape:pageopacity="0.0"
     inkscape:pageshadow="2"
     inkscape:zoom="0.24748738"
     inkscape:cx="-1125.7684"
     inkscape:cy="-1062.9412"
     inkscape:document-units="mm"
     inkscape:current-layer="layer1"
     showgrid="false"
     inkscape:window-width="1853"
     inkscape:window-height="1025"
     inkscape:window-x="67"
     inkscape:window-y="27"
     inkscape:window-maximized="1"
     inkscape:measure-start="-1265.72,-451.538"
     inkscape:measure-end="-1238.95,-539.421" />
  <metadata
     id="metadata5">
    <rdf:RDF>
      <cc:Work
         rdf:about="">
        <dc:format>image/svg+xml</dc:format>
        <dc:type
           rdf:resource="http://purl.org/dc/dcmitype/StillImage" />
        <dc:title />
      </cc:Work>
    </rdf:RDF>
  </metadata>
  <g
     inkscape:label="Layer 1"
     inkscape:groupmode="layer"
     id="layer1">
    <rect
       style="opacity:1;fill:none;fill-opacity:1;stroke:#000000;stroke-width:0.30000001;stroke-miterlimit:4;stroke-dasharray:none;stroke-opacity:1"
       id="rect815"
       width="190.7"
       height="190.7"
       x="-339.51901"
       y="439.57605" />
    <g
       transform="matrix(0.28222199,0,0,0.28222199,-229.45198,26.940476)"
       id="g889">
      <polygon
         style="fill:none;stroke:#000000;stroke-width:0.90000075"
         points="705.11869,338.3861 690.94545,338.3861 690.94545,366.73258 705.11869,366.73258 705.11869,395.07907 690.94545,395.07907 690.94545,423.42554 705.11869,423.42554 705.11869,451.77202 690.94545,451.77202 690.94545,480.11851 705.11869,480.11851 705.11869,508.46499 690.94545,508.46499 690.94545,536.81146 705.11869,536.81146 705.11869,565.15794 690.94545,565.15794 690.94545,593.50442 705.11869,593.50442 705.11869,621.85091 690.94545,621.85091 690.94545,663.4848 705.11869,663.4848 705.11869,705.11869 663.4848,705.11869 663.4848,690.94545 621.85091,690.94545 621.85091,705.11869 593.50442,705.11869 593.50442,690.94545 565.15794,690.94545 565.15794,705.11869 536.81146,705.11869 536.81146,690.94545 508.46499,690.94545 508.46499,705.11869 480.11851,705.11869 480.11851,690.94545 451.77202,690.94545 451.77202,705.11869 423.42554,705.11869 423.42554,690.94545 395.07907,690.94545 395.07907,705.11869 366.73258,705.11869 366.73258,690.94545 338.3861,690.94545 338.3861,705.11869 310.03963,705.11869 310.03963,690.94545 281.69315,690.94545 281.69315,705.11869 253.34667,705.11869 253.34667,690.94545 225.00018,690.94545 225.00018,705.11869 196.65371,705.11869 196.65371,690.94545 168.30723,690.94545 168.30723,705.11869 139.96075,705.11869 139.96075,690.94545 111.61427,690.94545 111.61427,705.11869 83.267785,705.11869 83.267785,690.94545 41.633893,690.94545 41.633893,705.11869 0,705.11869 0,663.4848 14.17324,663.4848 14.17324,621.85091 0,621.85091 0,593.50442 14.17324,593.50442 14.17324,565.15794 0,565.15794 0,536.81146 14.17324,536.81146 14.17324,508.46499 0,508.46499 0,480.11851 14.17324,480.11851 14.17324,451.77202 0,451.77202 0,423.42554 14.17324,423.42554 14.17324,395.07907 0,395.07907 0,366.73258 14.17324,366.73258 14.17324,338.3861 0,338.3861 0,310.03963 14.17324,310.03963 14.17324,281.69315 0,281.69315 0,253.34667 14.17324,253.34667 14.17324,225.00018 0,225.00018 0,196.65371 14.17324,196.65371 14.17324,168.30723 0,168.30723 0,139.96075 14.17324,139.96075 14.17324,111.61427 0,111.61427 0,83.267785 14.17324,83.267785 14.17324,41.633893 0,41.633893 0,0 41.633893,0 41.633893,14.17324 83.267785,14.17324 83.267785,0 111.61427,0 111.61427,14.17324 139.96075,14.17324 139.96075,0 168.30723,0 168.30723,14.17324 196.65371,14.17324 196.65371,0 225.00018,0 225.00018,14.17324 253.34667,14.17324 253.34667,0 281.69315,0 281.69315,14.17324 310.03963,14.17324 310.03963,0 338.3861,0 338.3861,14.17324 366.73258,14.17324 366.73258,0 395.07907,0 395.07907,14.17324 423.42554,14.17324 423.42554,0 451.77202,0 451.77202,14.17324 480.11851,14.17324 480.11851,0 508.46499,0 508.46499,14.17324 536.81146,14.17324 536.81146,0 565.15794,0 565.15794,14.17324 593.50442,14.17324 593.50442,0 621.85091,0 621.85091,14.17324 663.4848,14.17324 663.4848,0 705.11869,0 705.11869,41.633893 690.94545,41.633893 690.94545,83.267785 705.11869,83.267785 705.11869,111.61427 690.94545,111.61427 690.94545,139.96075 705.11869,139.96075 705.11869,168.30723 690.94545,168.30723 690.94545,196.65371 705.11869,196.65371 705.11869,225.00018 690.94545,225.00018 690.94545,253.34667 705.11869,253.34667 705.11869,281.69315 690.94545,281.69315 690.94545,310.03963 705.11869,310.03963 "
         id="polygon887" />
    </g>
    <g
       transform="matrix(0.28222199,0,0,0.28222199,1.8273948,26.940476)"
       id="g893">
      <polygon
         style="fill:none;stroke:#000000;stroke-width:0.90000075"
         points="111.61427,0 111.61427,14.17324 139.96075,14.17324 139.96075,0 168.30723,0 168.30723,14.17324 196.65371,14.17324 196.65371,0 225.00018,0 225.00018,14.17324 253.34667,14.17324 253.34667,0 281.69315,0 281.69315,14.17324 310.03963,14.17324 310.03963,0 338.3861,0 338.3861,14.17324 366.73258,14.17324 366.73258,0 395.07907,0 395.07907,14.17324 423.42554,14.17324 423.42554,0 451.77202,0 451.77202,14.17324 480.11851,14.17324 480.11851,0 508.46499,0 508.46499,14.17324 536.81146,14.17324 536.81146,0 565.15794,0 565.15794,14.17324 593.50442,14.17324 593.50442,0 621.85091,0 621.85091,14.17324 663.4848,14.17324 663.4848,0 705.11869,0 705.11869,41.633893 690.94545,41.633893 690.94545,83.267785 705.11869,83.267785 705.11869,111.61427 690.94545,111.61427 690.94545,139.96075 705.11869,139.96075 705.11869,168.30723 690.94545,168.30723 690.94545,196.65371 705.11869,196.65371 705.11869,225.00018 690.94545,225.00018 690.94545,253.34667 705.11869,253.34667 705.11869,281.69315 690.94545,281.69315 690.94545,310.03963 705.11869,310.03963 705.11869,338.3861 690.94545,338.3861 690.94545,366.73258 705.11869,366.73258 705.11869,395.07907 690.94545,395.07907 690.94545,423.42554 705.11869,423.42554 705.11869,451.77202 690.94545,451.77202 690.94545,480.11851 705.11869,480.11851 705.11869,508.46499 690.94545,508.46499 690.94545,536.81146 705.11869,536.81146 705.11869,565.15794 690.94545,565.15794 690.94545,593.50442 705.11869,593.50442 705.11869,621.85091 690.94545,621.85091 690.94545,663.4848 705.11869,663.4848 705.11869,705.11869 663.4848,705.11869 663.4848,690.94545 621.85091,690.94545 621.85091,705.11869 593.50442,705.11869 593.50442,690.94545 565.15794,690.94545 565.15794,705.11869 536.81146,705.11869 536.81146,690.94545 508.46499,690.94545 508.46499,705.11869 480.11851,705.11869 480.11851,690.94545 451.77202,690.94545 451.77202,705.11869 423.42554,705.11869 423.42554,690.94545 395.07907,690.94545 395.07907,705.11869 366.73258,705.11869 366.73258,690.94545 338.3861,690.94545 338.3861,705.11869 310.03963,705.11869 310.03963,690.94545 281.69315,690.94545 281.69315,705.11869 253.34667,705.11869 253.34667,690.94545 225.00018,690.94545 225.00018,705.11869 196.65371,705.11869 196.65371,690.94545 168.30723,690.94545 168.30723,705.11869 139.96075,705.11869 139.96075,690.94545 111.61427,690.94545 111.61427,705.11869 83.267785,705.11869 83.267785,690.94545 41.633893,690.94545 41.633893,705.11869 0,705.11869 0,663.4848 14.17324,663.4848 14.17324,621.85091 0,621.85091 0,593.50442 14.17324,593.50442 14.17324,565.15794 0,565.15794 0,536.81146 14.17324,536.81146 14.17324,508.46499 0,508.46499 0,480.11851 14.17324,480.11851 14.17324,451.77202 0,451.77202 0,423.42554 14.17324,423.42554 14.17324,395.07907 0,395.07907 0,366.73258 14.17324,366.73258 14.17324,338.3861 0,338.3861 0,310.03963 14.17324,310.03963 14.17324,281.69315 0,281.69315 0,253.34667 14.17324,253.34667 14.17324,225.00018 0,225.00018 0,196.65371 14.17324,196.65371 14.17324,168.30723 0,168.30723 0,139.96075 14.17324,139.96075 14.17324,111.61427 0,111.61427 0,83.267785 14.17324,83.267785 14.17324,41.633893 0,41.633893 0,0 41.633893,0 41.633893,14.17324 83.267785,14.17324 83.267785,0 "
         id="polygon891" />
    </g>
    <g
       transform="matrix(0.28222199,0,0,0.28222199,220.93583,17.944637)"
       id="g897">
      <polygon
         style="fill:none;stroke:#000000;stroke-width:0.90000075"
         points="0,451.77202 14.17324,451.77202 14.17324,423.42554 0,423.42554 0,395.07907 14.17324,395.07907 14.17324,366.73258 0,366.73258 0,338.3861 14.17324,338.3861 14.17324,310.03963 0,310.03963 0,281.69315 14.17324,281.69315 14.17324,253.34667 0,253.34667 0,225.00018 14.17324,225.00018 14.17324,196.65371 0,196.65371 0,168.30723 14.17324,168.30723 14.17324,139.96075 0,139.96075 0,111.61427 14.17324,111.61427 14.17324,83.267785 0,83.267785 0,41.633893 14.17324,41.633893 14.17324,0 48.720512,0 48.720512,14.17324 97.441025,14.17324 97.441025,0 125.7875,0 125.7875,14.17324 154.13398,14.17324 154.13398,0 182.48046,0 182.48046,14.17324 210.82694,14.17324 210.82694,0 239.17342,0 239.17342,14.17324 267.5199,14.17324 267.5199,0 295.86639,0 295.86639,14.17324 324.21286,14.17324 324.21286,0 352.55935,0 352.55935,14.17324 380.90582,14.17324 380.90582,0 409.2523,0 409.2523,14.17324 457.97282,14.17324 457.97282,0 492.52009,0 492.52009,41.633893 506.69333,41.633893 506.69333,83.267785 492.52009,83.267785 492.52009,111.61427 506.69333,111.61427 506.69333,139.96075 492.52009,139.96075 492.52009,168.30723 506.69333,168.30723 506.69333,196.65371 492.52009,196.65371 492.52009,225.00018 506.69333,225.00018 506.69333,253.34667 492.52009,253.34667 492.52009,281.69315 506.69333,281.69315 506.69333,310.03963 492.52009,310.03963 492.52009,338.3861 506.69333,338.3861 506.69333,366.73258 492.52009,366.73258 492.52009,395.07907 506.69333,395.07907 506.69333,423.42554 492.52009,423.42554 492.52009,451.77202 506.69333,451.77202 506.69333,480.11851 492.52009,480.11851 492.52009,508.46499 506.69333,508.46499 506.69333,536.81146 492.52009,536.81146 492.52009,565.15794 506.69333,565.15794 506.69333,593.50442 492.52009,593.50442 492.52009,621.85091 506.69333,621.85091 506.69333,663.4848 492.52009,663.4848 492.52009,705.11869 457.97282,705.11869 457.97282,690.94545 409.2523,690.94545 409.2523,705.11869 380.90582,705.11869 380.90582,690.94545 352.55935,690.94545 352.55935,705.11869 324.21286,705.11869 324.21286,690.94545 295.86639,690.94545 295.86639,705.11869 267.5199,705.11869 267.5199,690.94545 239.17342,690.94545 239.17342,705.11869 210.82694,705.11869 210.82694,690.94545 182.48046,690.94545 182.48046,705.11869 154.13398,705.11869 154.13398,690.94545 125.7875,690.94545 125.7875,705.11869 97.441025,705.11869 97.441025,690.94545 48.720512,690.94545 48.720512,705.11869 14.17324,705.11869 14.17324,663.4848 0,663.4848 0,621.85091 14.17324,621.85091 14.17324,593.50442 0,593.50442 0,565.15794 14.17324,565.15794 14.17324,536.81146 0,536.81146 0,508.46499 14.17324,508.46499 14.17324,480.11851 0,480.11851 "
         id="polygon895" />
    </g>
    <g
       transform="matrix(0.28222199,0,0,0.28222199,216.70247,225.94048)"
       id="g901">
      <polygon
         style="fill:none;stroke:#000000;stroke-width:0.90000075"
         points="506.69333,111.61427 506.69333,139.96075 492.52009,139.96075 492.52009,168.30723 506.69333,168.30723 506.69333,196.65371 492.52009,196.65371 492.52009,225.00018 506.69333,225.00018 506.69333,253.34667 492.52009,253.34667 492.52009,281.69315 506.69333,281.69315 506.69333,310.03963 492.52009,310.03963 492.52009,338.3861 506.69333,338.3861 506.69333,366.73258 492.52009,366.73258 492.52009,395.07907 506.69333,395.07907 506.69333,423.42554 492.52009,423.42554 492.52009,451.77202 506.69333,451.77202 506.69333,480.11851 492.52009,480.11851 492.52009,508.46499 506.69333,508.46499 506.69333,536.81146 492.52009,536.81146 492.52009,565.15794 506.69333,565.15794 506.69333,593.50442 492.52009,593.50442 492.52009,621.85091 506.69333,621.85091 506.69333,663.4848 492.52009,663.4848 492.52009,705.11869 457.97282,705.11869 457.97282,690.94545 409.2523,690.94545 409.2523,705.11869 380.90582,705.11869 380.90582,690.94545 352.55935,690.94545 352.55935,705.11869 324.21286,705.11869 324.21286,690.94545 295.86639,690.94545 295.86639,705.11869 267.5199,705.11869 267.5199,690.94545 239.17342,690.94545 239.17342,705.11869 210.82694,705.11869 210.82694,690.94545 182.48046,690.94545 182.48046,705.11869 154.13398,705.11869 154.13398,690.94545 125.7875,690.94545 125.7875,705.11869 97.441025,705.11869 97.441025,690.94545 48.720512,690.94545 48.720512,705.11869 14.17324,705.11869 14.17324,663.4848 0,663.4848 0,621.85091 14.17324,621.85091 14.17324,593.50442 0,593.50442 0,565.15794 14.17324,565.15794 14.17324,536.81146 0,536.81146 0,508.46499 14.17324,508.46499 14.17324,480.11851 0,480.11851 0,451.77202 14.17324,451.77202 14.17324,423.42554 0,423.42554 0,395.07907 14.17324,395.07907 14.17324,366.73258 0,366.73258 0,338.3861 14.17324,338.3861 14.17324,310.03963 0,310.03963 0,281.69315 14.17324,281.69315 14.17324,253.34667 0,253.34667 0,225.00018 14.17324,225.00018 14.17324,196.65371 0,196.65371 0,168.30723 14.17324,168.30723 14.17324,139.96075 0,139.96075 0,111.61427 14.17324,111.61427 14.17324,83.267785 0,83.267785 0,41.633893 14.17324,41.633893 14.17324,0 48.720512,0 48.720512,14.17324 97.441025,14.17324 97.441025,0 125.7875,0 125.7875,14.17324 154.13398,14.17324 154.13398,0 182.48046,0 182.48046,14.17324 210.82694,14.17324 210.82694,0 239.17342,0 239.17342,14.17324 267.5199,14.17324 267.5199,0 295.86639,0 295.86639,14.17324 324.21286,14.17324 324.21286,0 352.55935,0 352.55935,14.17324 380.90582,14.17324 380.90582,0 409.2523,0 409.2523,14.17324 457.97282,14.17324 457.97282,0 492.52009,0 492.52009,41.633893 506.69333,41.633893 506.69333,83.267785 492.52009,83.267785 492.52009,111.61427 "
         id="polygon899" />
    </g>
    <g
       transform="matrix(0.28222199,0,0,0.28222199,-461.2349,133.331)"
       id="g905">
      <polygon
         style="fill:none;stroke:#000000;stroke-width:0.90000075"
         points="480.11851,0 480.11851,14.17324 508.46499,14.17324 508.46499,0 536.81146,0 536.81146,14.17324 565.15794,14.17324 565.15794,0 593.50442,0 593.50442,14.17324 621.85091,14.17324 621.85091,0 663.4848,0 663.4848,14.17324 690.94545,14.17324 690.94545,48.720512 705.11869,48.720512 705.11869,97.441025 690.94545,97.441025 690.94545,125.7875 705.11869,125.7875 705.11869,154.13398 690.94545,154.13398 690.94545,182.48046 705.11869,182.48046 705.11869,210.82694 690.94545,210.82694 690.94545,239.17342 705.11869,239.17342 705.11869,267.5199 690.94545,267.5199 690.94545,295.86639 705.11869,295.86639 705.11869,324.21286 690.94545,324.21286 690.94545,352.55935 705.11869,352.55935 705.11869,380.90582 690.94545,380.90582 690.94545,409.2523 705.11869,409.2523 705.11869,457.97282 690.94545,457.97282 690.94545,492.52009 663.4848,492.52009 663.4848,506.69333 621.85091,506.69333 621.85091,492.52009 593.50442,492.52009 593.50442,506.69333 565.15794,506.69333 565.15794,492.52009 536.81146,492.52009 536.81146,506.69333 508.46499,506.69333 508.46499,492.52009 480.11851,492.52009 480.11851,506.69333 451.77202,506.69333 451.77202,492.52009 423.42554,492.52009 423.42554,506.69333 395.07907,506.69333 395.07907,492.52009 366.73258,492.52009 366.73258,506.69333 338.3861,506.69333 338.3861,492.52009 310.03963,492.52009 310.03963,506.69333 281.69315,506.69333 281.69315,492.52009 253.34667,492.52009 253.34667,506.69333 225.00018,506.69333 225.00018,492.52009 196.65371,492.52009 196.65371,506.69333 168.30723,506.69333 168.30723,492.52009 139.96075,492.52009 139.96075,506.69333 111.61427,506.69333 111.61427,492.52009 83.267785,492.52009 83.267785,506.69333 41.633893,506.69333 41.633893,492.52009 14.17324,492.52009 14.17324,457.97282 0,457.97282 0,409.2523 14.17324,409.2523 14.17324,380.90582 0,380.90582 0,352.55935 14.17324,352.55935 14.17324,324.21286 0,324.21286 0,295.86639 14.17324,295.86639 14.17324,267.5199 0,267.5199 0,239.17342 14.17324,239.17342 14.17324,210.82694 0,210.82694 0,182.48046 14.17324,182.48046 14.17324,154.13398 0,154.13398 0,125.7875 14.17324,125.7875 14.17324,97.441025 0,97.441025 0,48.720512 14.17324,48.720512 14.17324,14.17324 41.633893,14.17324 41.633893,0 83.267785,0 83.267785,14.17324 111.61427,14.17324 111.61427,0 139.96075,0 139.96075,14.17324 168.30723,14.17324 168.30723,0 196.65371,0 196.65371,14.17324 225.00018,14.17324 225.00018,0 253.34667,0 253.34667,14.17324 281.69315,14.17324 281.69315,0 310.03963,0 310.03963,14.17324 338.3861,14.17324 338.3861,0 366.73258,0 366.73258,14.17324 395.07907,14.17324 395.07907,0 423.42554,0 423.42554,14.17324 451.77202,14.17324 451.77202,0 "
         id="polygon903" />
    </g>
    <g
       transform="matrix(0.28222199,0,0,0.28222199,6.0607284,233.87803)"
       id="g909">
      <polygon
         style="fill:none;stroke:#000000;stroke-width:0.90000075"
         points="536.81146,14.17324 565.15794,14.17324 565.15794,0 593.50442,0 593.50442,14.17324 621.85091,14.17324 621.85091,0 663.4848,0 663.4848,14.17324 690.94545,14.17324 690.94545,48.720512 705.11869,48.720512 705.11869,97.441025 690.94545,97.441025 690.94545,125.7875 705.11869,125.7875 705.11869,154.13398 690.94545,154.13398 690.94545,182.48046 705.11869,182.48046 705.11869,210.82694 690.94545,210.82694 690.94545,239.17342 705.11869,239.17342 705.11869,267.5199 690.94545,267.5199 690.94545,295.86639 705.11869,295.86639 705.11869,324.21286 690.94545,324.21286 690.94545,352.55935 705.11869,352.55935 705.11869,380.90582 690.94545,380.90582 690.94545,409.2523 705.11869,409.2523 705.11869,457.97282 690.94545,457.97282 690.94545,492.52009 663.4848,492.52009 663.4848,506.69333 621.85091,506.69333 621.85091,492.52009 593.50442,492.52009 593.50442,506.69333 565.15794,506.69333 565.15794,492.52009 536.81146,492.52009 536.81146,506.69333 508.46499,506.69333 508.46499,492.52009 480.11851,492.52009 480.11851,506.69333 451.77202,506.69333 451.77202,492.52009 423.42554,492.52009 423.42554,506.69333 395.07907,506.69333 395.07907,492.52009 366.73258,492.52009 366.73258,506.69333 338.3861,506.69333 338.3861,492.52009 310.03963,492.52009 310.03963,506.69333 281.69315,506.69333 281.69315,492.52009 253.34667,492.52009 253.34667,506.69333 225.00018,506.69333 225.00018,492.52009 196.65371,492.52009 196.65371,506.69333 168.30723,506.69333 168.30723,492.52009 139.96075,492.52009 139.96075,506.69333 111.61427,506.69333 111.61427,492.52009 83.267785,492.52009 83.267785,506.69333 41.633893,506.69333 41.633893,492.52009 14.17324,492.52009 14.17324,457.97282 0,457.97282 0,409.2523 14.17324,409.2523 14.17324,380.90582 0,380.90582 0,352.55935 14.17324,352.55935 14.17324,324.21286 0,324.21286 0,295.86639 14.17324,295.86639 14.17324,267.5199 0,267.5199 0,239.17342 14.17324,239.17342 14.17324,210.82694 0,210.82694 0,182.48046 14.17324,182.48046 14.17324,154.13398 0,154.13398 0,125.7875 14.17324,125.7875 14.17324,97.441025 0,97.441025 0,48.720512 14.17324,48.720512 14.17324,14.17324 41.633893,14.17324 41.633893,0 83.267785,0 83.267785,14.17324 111.61427,14.17324 111.61427,0 139.96075,0 139.96075,14.17324 168.30723,14.17324 168.30723,0 196.65371,0 196.65371,14.17324 225.00018,14.17324 225.00018,0 253.34667,0 253.34667,14.17324 281.69315,14.17324 281.69315,0 310.03963,0 310.03963,14.17324 338.3861,14.17324 338.3861,0 366.73258,0 366.73258,14.17324 395.07907,14.17324 395.07907,0 423.42554,0 423.42554,14.17324 451.77202,14.17324 451.77202,0 480.11851,0 480.11851,14.17324 508.46499,14.17324 508.46499,0 536.81146,0 "
         id="polygon907" />
    </g>
    <g
       transform="matrix(0.28222199,0,0,0.28222199,-345.81902,433.27605)"
       id="g1601">
      <polygon
         style="fill:none;stroke:#000000;stroke-width:0.90000075"
         points="0,698.03207 698.03207,698.03207 698.03207,0 0,0 "
         id="polygon1599" />
    </g>
    <g
       transform="matrix(0.28222199,0,0,0.28222199,-148.81901,433.27605)"
       id="g1605">
      <polyline
         style="fill:none;stroke:#000000;stroke-width:0.90000075"
         points="0, 0 698.03207, 0 698.03207, 698.03207 0, 698.03207"
         id="polyline1603" />
    </g>
    <g
       transform="matrix(0.28222199,0,0,0.28222199,44.180992,437.27605)"
       id="g1609">
      <polyline
         style="fill:none;stroke:#000000;stroke-width:0.90000075"
         points="14.17324, 14.17324 485.43347, 14.17324 485.43347, 683.85883 14.17324, 683.85883"
         id="polyline1607" />
    </g>
    <g
       transform="matrix(0.28222199,0,0,0.28222199,44.180992,626.27606)"
       id="g1613">
      <polyline
         style="fill:none;stroke:#000000;stroke-width:0.90000075"
         points="485.43347, 14.17324 485.43347, 683.85883 14.17324, 683.85883 14.17324, 485.43347"
         id="polyline1611" />
    </g>
    <g
       transform="matrix(0.28222199,0,0,0.28222199,-345.81902,626.27606)"
       id="g1617">
      <polyline
         style="fill:none;stroke:#000000;stroke-width:0.90000075"
         points="0, 14.17324 0, 485.43347 698.03207, 485.43347 698.03207, 14.17324"
         id="polyline1615" />
    </g>
    <g
       transform="matrix(0.28222199,0,0,0.28222199,-148.81901,626.27606)"
       id="g1621">
      <polyline
         style="fill:none;stroke:#000000;stroke-width:0.90000075"
         points="0, 485.43347 698.03207, 485.43347 698.03207, 14.17324"
         id="polyline1619" />
    </g>
  </g>
</svg>
